TITLE ""
FILE "2Q_j_1635-1648.mp3" MP3
  TRACK 01 AUDIO
    TITLE "2Q_j_1635-1648_01"
    INDEX 01 00:00:00
  TRACK 02 AUDIO
    TITLE "2Q_j_1635-1648_02"
    INDEX 01 00:01:43
  TRACK 03 AUDIO
    TITLE "2Q_j_1635-1648_03"
    INDEX 01 00:02:19
  TRACK 04 AUDIO
    TITLE "2Q_j_1635-1648_04"
    INDEX 01 00:03:46
  TRACK 05 AUDIO
    TITLE "2Q_j_1635-1648_05"
    INDEX 01 00:04:16
  TRACK 06 AUDIO
    TITLE "2Q_j_1635-1648_06"
    INDEX 01 00:07:32
  TRACK 07 AUDIO
    TITLE "2Q_j_1635-1648_07"
    INDEX 01 00:08:02
  TRACK 08 AUDIO
    TITLE "2Q_j_1635-1648_08"
    INDEX 01 00:09:19
  TRACK 09 AUDIO
    TITLE "2Q_j_1635-1648_09"
    INDEX 01 00:09:64
  TRACK 10 AUDIO
    TITLE "2Q_j_1635-1648_10"
    INDEX 01 00:11:04
  TRACK 11 AUDIO
    TITLE "2Q_j_1635-1648_11"
    INDEX 01 00:11:49
  TRACK 12 AUDIO
    TITLE "2Q_j_1635-1648_12"
    INDEX 01 00:16:11
  TRACK 13 AUDIO
    TITLE "2Q_j_1635-1648_13"
    INDEX 01 00:16:58
  TRACK 14 AUDIO
    TITLE "2Q_j_1635-1648_14"
    INDEX 01 00:17:73
  TRACK 15 AUDIO
    TITLE "2Q_j_1635-1648_15"
    INDEX 01 00:18:43
  TRACK 16 AUDIO
    TITLE "2Q_j_1635-1648_16"
    INDEX 01 00:21:16
  TRACK 17 AUDIO
    TITLE "2Q_j_1635-1648_17"
    INDEX 01 00:21:59
  TRACK 18 AUDIO
    TITLE "2Q_j_1635-1648_18"
    INDEX 01 00:26:41
  TRACK 19 AUDIO
    TITLE "2Q_j_1635-1648_19"
    INDEX 01 00:27:13
  TRACK 20 AUDIO
    TITLE "2Q_j_1635-1648_20"
    INDEX 01 00:29:04
  TRACK 21 AUDIO
    TITLE "2Q_j_1635-1648_21"
    INDEX 01 00:29:51
  TRACK 22 AUDIO
    TITLE "2Q_j_1635-1648_22"
    INDEX 01 00:31:66
  TRACK 23 AUDIO
    TITLE "2Q_j_1635-1648_23"
    INDEX 01 00:32:36
  TRACK 24 AUDIO
    TITLE "2Q_j_1635-1648_24"
    INDEX 01 00:35:22
  TRACK 25 AUDIO
    TITLE "2Q_j_1635-1648_25"
    INDEX 01 00:35:71
  TRACK 26 AUDIO
    TITLE "2Q_j_1635-1648_26"
    INDEX 01 00:37:51
  TRACK 27 AUDIO
    TITLE "2Q_j_1635-1648_27"
    INDEX 01 00:38:21
  TRACK 28 AUDIO
    TITLE "2Q_j_1635-1648_28"
    INDEX 01 00:40:45
  TRACK 29 AUDIO
    TITLE "2Q_j_1635-1648_29"
    INDEX 01 00:41:15
  TRACK 30 AUDIO
    TITLE "2Q_j_1635-1648_30"
    INDEX 01 00:45:70
  TRACK 31 AUDIO
    TITLE "2Q_j_1635-1648_31"
    INDEX 01 00:46:42
  TRACK 32 AUDIO
    TITLE "2Q_j_1635-1648_32"
    INDEX 01 00:47:59
  TRACK 33 AUDIO
    TITLE "2Q_j_1635-1648_33"
    INDEX 01 00:48:33
  TRACK 34 AUDIO
    TITLE "2Q_j_1635-1648_34"
    INDEX 01 00:51:70
  TRACK 35 AUDIO
    TITLE "2Q_j_1635-1648_35"
    INDEX 01 00:52:40
  TRACK 36 AUDIO
    TITLE "2Q_j_1635-1648_36"
    INDEX 01 00:56:52
  TRACK 37 AUDIO
    TITLE "2Q_j_1635-1648_37"
    INDEX 01 00:57:24
  TRACK 38 AUDIO
    TITLE "2Q_j_1635-1648_38"
    INDEX 01 00:58:63
  TRACK 39 AUDIO
    TITLE "2Q_j_1635-1648_39"
    INDEX 01 00:59:33
  TRACK 40 AUDIO
    TITLE "2Q_j_1635-1648_40"
    INDEX 01 01:04:71
  TRACK 41 AUDIO
    TITLE "2Q_j_1635-1648_41"
    INDEX 01 01:05:41
  TRACK 42 AUDIO
    TITLE "2Q_j_1635-1648_42"
    INDEX 01 01:08:32
  TRACK 43 AUDIO
    TITLE "2Q_j_1635-1648_43"
    INDEX 01 01:09:10
  TRACK 44 AUDIO
    TITLE "2Q_j_1635-1648_44"
    INDEX 01 01:10:31
  TRACK 45 AUDIO
    TITLE "2Q_j_1635-1648_45"
    INDEX 01 01:11:01
  TRACK 46 AUDIO
    TITLE "2Q_j_1635-1648_46"
    INDEX 01 01:13:48
  TRACK 47 AUDIO
    TITLE "2Q_j_1635-1648_47"
    INDEX 01 01:14:18
  TRACK 48 AUDIO
    TITLE "2Q_j_1635-1648_48"
    INDEX 01 01:20:15
  TRACK 49 AUDIO
    TITLE "2Q_j_1635-1648_49"
    INDEX 01 01:20:70
  TRACK 50 AUDIO
    TITLE "2Q_j_1635-1648_50"
    INDEX 01 01:22:51
  TRACK 51 AUDIO
    TITLE "2Q_j_1635-1648_51"
    INDEX 01 01:23:31
  TRACK 52 AUDIO
    TITLE "2Q_j_1635-1648_52"
    INDEX 01 01:25:10
  TRACK 53 AUDIO
    TITLE "2Q_j_1635-1648_53"
    INDEX 01 01:25:58
  TRACK 54 AUDIO
    TITLE "2Q_j_1635-1648_54"
    INDEX 01 01:28:70
  TRACK 55 AUDIO
    TITLE "2Q_j_1635-1648_55"
    INDEX 01 01:29:42
  TRACK 56 AUDIO
    TITLE "2Q_j_1635-1648_56"
    INDEX 01 01:30:72
  TRACK 57 AUDIO
    TITLE "2Q_j_1635-1648_57"
    INDEX 01 01:31:44
  TRACK 58 AUDIO
    TITLE "2Q_j_1635-1648_58"
    INDEX 01 01:35:50
  TRACK 59 AUDIO
    TITLE "2Q_j_1635-1648_59"
    INDEX 01 01:36:20
  TRACK 60 AUDIO
    TITLE "2Q_j_1635-1648_60"
    INDEX 01 01:40:71
  TRACK 61 AUDIO
    TITLE "2Q_j_1635-1648_61"
    INDEX 01 01:41:41
  TRACK 62 AUDIO
    TITLE "2Q_j_1635-1648_62"
    INDEX 01 01:42:72
  TRACK 63 AUDIO
    TITLE "2Q_j_1635-1648_63"
    INDEX 01 01:43:42
  TRACK 64 AUDIO
    TITLE "2Q_j_1635-1648_64"
    INDEX 01 01:47:55
  TRACK 65 AUDIO
    TITLE "2Q_j_1635-1648_65"
    INDEX 01 01:48:27
  TRACK 66 AUDIO
    TITLE "2Q_j_1635-1648_66"
    INDEX 01 01:52:17
  TRACK 67 AUDIO
    TITLE "2Q_j_1635-1648_67"
    INDEX 01 01:52:62
  TRACK 68 AUDIO
    TITLE "2Q_j_1635-1648_68"
    INDEX 01 01:54:28
  TRACK 69 AUDIO
    TITLE "2Q_j_1635-1648_69"
    INDEX 01 01:54:73
  TRACK 70 AUDIO
    TITLE "2Q_j_1635-1648_70"
    INDEX 01 01:56:58
  TRACK 71 AUDIO
    TITLE "2Q_j_1635-1648_71"
    INDEX 01 01:57:28
  TRACK 72 AUDIO
    TITLE "2Q_j_1635-1648_72"
    INDEX 01 01:59:74
  TRACK 73 AUDIO
    TITLE "2Q_j_1635-1648_73"
    INDEX 01 02:00:46
  TRACK 74 AUDIO
    TITLE "2Q_j_1635-1648_74"
    INDEX 01 02:02:02
  TRACK 75 AUDIO
    TITLE "2Q_j_1635-1648_75"
    INDEX 01 02:02:45
  TRACK 76 AUDIO
    TITLE "2Q_j_1635-1648_76"
    INDEX 01 02:06:15
  TRACK 77 AUDIO
    TITLE "2Q_j_1635-1648_77"
    INDEX 01 02:06:58
  TRACK 78 AUDIO
    TITLE "2Q_j_1635-1648_78"
    INDEX 01 02:09:47
  TRACK 79 AUDIO
    TITLE "2Q_j_1635-1648_79"
    INDEX 01 02:10:17
  TRACK 80 AUDIO
    TITLE "2Q_j_1635-1648_80"
    INDEX 01 02:11:44
  TRACK 81 AUDIO
    TITLE "2Q_j_1635-1648_81"
    INDEX 01 02:12:14
  TRACK 82 AUDIO
    TITLE "2Q_j_1635-1648_82"
    INDEX 01 02:14:11
  TRACK 83 AUDIO
    TITLE "2Q_j_1635-1648_83"
    INDEX 01 02:14:58
  TRACK 84 AUDIO
    TITLE "2Q_j_1635-1648_84"
    INDEX 01 02:18:36
